<?xml version="1.0" encoding="UTF-8"?>
<svg id="Layer_1" data-name="Layer 1" xmlns="http://www.w3.org/2000/svg" viewBox="0 0 148 38">
  <defs>
    <style>
      .cls-1 {
        fill: #fff;
      }

      .cls-2 {
        fill: #c91235;
      }

      .cls-3 {
        fill: #63666f;
      }
    </style>
  </defs>
  <path class="cls-3" d="m44.0129,28.6132h1.7697v5.4358c0,.6106-.145,1.1445-.4355,1.6021-.2901.458-.6955.8142-1.2159,1.069s-1.1265.3821-1.8186.3821c-.6947,0-1.3027-.1274-1.8231-.3821s-.9251-.6109-1.2136-1.069c-.289-.4577-.4332-.9916-.4332-1.6021v-5.4358h1.7697v5.2847c0,.3186.0699.6023.2104.8499.1402.248.3385.443.5944.5847.2563.1417.5546.2127.8954.2127.3431,0,.6421-.071.8969-.2127.2547-.1417.4524-.3367.5929-.5847.1401-.2476.2104-.5313.2104-.8499v-5.2847Zm11.9627,0v8.3706h-1.5285l-3.6416-5.2686h-.0612v5.2686h-1.7697v-8.3706h1.5533l3.6127,5.2644h.074v-5.2644h1.7611Zm4.9616,8.3706h-1.7697v-8.3703h1.7697v8.3703Zm4.36-8.3706l2.0237,6.3597h.0774l2.0271-6.3597h1.9617l-2.8853,8.3706h-2.2811l-2.8894-8.3706h1.9658Zm8.4841,8.3706v-8.3706h5.6398v1.459h-3.8701v1.9948h3.5804v1.459h-3.5804v1.9985h3.8866v1.4594h-5.6563Zm13.3078,0h1.9538l-1.7753-3.2516c.0259-.0113.0519-.0225.077-.0346.4539-.2127.8007-.5185,1.0404-.9176.2393-.399.36-.8766.36-1.4327,0-.5531-.1184-1.0344-.3536-1.4447-.236-.4099-.5783-.7274-1.0261-.9521-.4482-.2251-.9886-.3374-1.6202-.3374h-3.3031v8.3706h1.7701v-2.9676h1.2918l1.5852,2.9676Zm-2.877-6.9237h1.1933c.3404,0,.6233.0496.8484.1492.2247.0996.3919.2446.5023.4351.1105.1909.1657.4253.1657.703,0,.2754-.0552.5057-.1657.691-.1105.1853-.2769.3243-.5005.4167-.2236.0928-.5039.139-.842.139h-1.2016v-2.5339Zm11.9025.9604c-.0327-.3295-.1728-.5858-.4212-.7684-.248-.1826-.5843-.2739-1.0096-.2739-.2886,0-.5324.0402-.7316.1206-.1988.0804-.3509.1916-.4554.3333-.1048.1417-.1571.3025-.1571.4821-.006.1499.0263.2807.0958.3927.0691.1116.1653.2078.2878.2878.1229.0804.2645.1499.4253.2085.1604.0586.3325.1082.5151.1492l.7515.18c.3652.0815.7004.1905,1.0058.3269.3051.1364.5692.304.7928.5027.2232.1992.3968.4332.5211.703.124.2698.1871.579.1897.9277-.0026.5125-.1323.9559-.39,1.3305-.2574.3746-.6279.6647-1.1118.8706-.4836.2055-1.0663.3085-1.7472.3085-.676,0-1.2636-.1037-1.7637-.3107-.4997-.207-.8894-.514-1.1686-.9217-.2799-.4073-.4261-.9119-.4396-1.5142h1.7126c.0192.2807.1003.5144.2435.7011.1428.1867.3348.3269.5756.4208.2412.0939.5144.1409.8195.1409.2998,0,.5606-.0432.783-.1307.2221-.0872.3942-.2082.517-.3637.1225-.1552.1837-.3337.1837-.5354,0-.1879-.0549-.3461-.1653-.4742-.1108-.1278-.2713-.2367-.4824-.3269-.2108-.0898-.4697-.1717-.7747-.245l-.9115-.2292c-.7056-.1713-1.2629-.44-1.6713-.8048-.4084-.3652-.6117-.8571-.6091-1.4755-.0026-.5069.133-.9495.4069-1.3282s.6504-.6744,1.1298-.8871c.4798-.2127,1.0246-.3186,1.6352-.3186.6211,0,1.1636.106,1.6288.3186.4644.2127.8259.5084,1.0851.8871.2585.3787.3919.8172.4005,1.3158h-1.6965Zm6.3661,5.9633h-1.7697v-8.3703h1.7697v8.3703Zm2.5652-6.9117v-1.459h6.8748v1.459h-2.5629v6.9117h-1.7491v-6.9117h-2.5629Zm8.7084-1.459h1.9816l1.9091,3.6048h.0819l1.9084-3.6048h1.9824l-3.0532,5.4113v2.9593h-1.7577v-2.9593l-3.0525-5.4113Zm9.623,6.433c-.0725-.1683-.1721-.3167-.3006-.4445-.1274-.1281-.2758-.2281-.4441-.3002-.1683-.0718-.3495-.1078-.5426-.1078-.1928,0-.3739.0361-.5422.1078-.1683.0721-.3168.1721-.4449.3002-.1277.1278-.2273.2762-.2998.4445-.0721.1687-.1082.3494-.1082.5426,0,.1928.0361.3739.1082.5422.0725.1687.1721.3168.2998.4445.1281.1281.2765.2281.4449.3002s.3494.1082.5422.1082c.1931,0,.3742-.0361.5426-.1082s.3167-.1721.4441-.3002c.1285-.1277.2281-.2758.3006-.4445.0718-.1683.1082-.3494.1082-.5422,0-.1931-.0364-.3739-.1082-.5426m-.3051,1.1137c-.1026.1713-.2397.3081-.4107.4107-.1713.1022-.3622.1533-.5715.1533-.2089,0-.3998-.0511-.5711-.1533-.1717-.1026-.3081-.2393-.4107-.4107-.1022-.1717-.1529-.3618-.1529-.5711s.0507-.3998.1529-.5711c.1026-.1717.239-.3085.4107-.4107.1713-.1022.3622-.1537.5711-.1537.2093,0,.4002.0515.5715.1537.171.1022.3081.239.4107.4107.1018.1713.1529.3618.1529.5711s-.0511.3994-.1529.5711m-.6549-.4562c.0631-.0338.1153-.0823.1567-.1458.041-.0631.0624-.1383.0624-.2254,0-.0876-.0203-.1608-.0605-.2209-.0398-.0597-.0906-.1052-.1518-.136-.0609-.0304-.124-.0462-.189-.0462h-.6173v1.2869h.2247v-.4618h.3536l.2412.4618h.2514l-.2747-.511c.0011-.0008.0022-.0011.0034-.0015m-.5749-.5982h.3246c.056,0,.1071.0177.154.0522.047.0349.0706.0932.0706.1747,0,.0789-.0237.1394-.0706.1819-.047.0424-.1003.0639-.1593.0639h-.3194v-.4727Z"/>
  <path class="cls-2" d="m99.73,20.998c-.1912.0549-.4302.0823-.7173.0823-.4644,0-.7785-.1642-.9495-.499-.1634-.3348-.2596-.7718-.2867-1.3252-.0274-.5467-.0477-1.1546-.0549-1.8103-.0135-.656-.0815-1.3184-.2048-1.9745-.1161-.6557-.3551-1.2568-.7173-1.8103-.3618-.5467-.9081-.9908-1.639-1.3256-.6895-.3186-1.6093-.4779-2.7568-.4926.8898-.0774,1.7006-.2123,2.4081-.4227,1.134-.3348,2.0016-.8676,2.6095-1.5988.6076-.7308.9082-1.6806.9082-2.8556s-.3209-2.1383-.963-2.8965c-.6418-.7721-1.5296-1.3391-2.6775-1.7081-1.1336-.3757-2.4513-.5948-3.9471-.5948h-9.4806v.975h2.7184v18.3611h-4.8406l-6.8294-19.6976h-2.1312l-6.9804,19.6976h-4.2755V2.7414h1.905v-.975h-6.8981l-4.924,14.6338-5.3959-14.6338h-6.8094v.975h2.0421v18.3611h-1.8918v.9747h4.815v-.9747h-1.8779V3.172l7.021,19.1719h1.1339l6.6862-19.7438v18.5024h-2.165v.9747h14.2407v-.9747h-2.4859l1.7626-5.0435h6.5626l1.6322,5.0435h-2.3153v.9747h18.931v-.9747h-2.7181v-8.767h1.8982c.8266,0,1.4759.1368,1.9332.4167.4648.2803.7924.656.9904,1.1343.1976.4783.3137,1.0179.3618,1.6123.0549.5805.0819,1.1956.0819,1.8242.0067.6215.0481,1.2294.1229,1.8238.0688.5876.2255,1.1204.4715,1.5988.2525.4644.6354.8401,1.161,1.1204.5324.2799,1.2565.4167,2.1785.4167h.0207c.7579,0,1.4346-.0684,2.0282-.1913.5944-.1161.9976-.2322,1.2159-.3487l-.3276-.9495c-.1909.0819-.3825.1503-.5805.2048m-33.3022-5.9298l3.0611-8.7652,2.8345,8.7652h-5.8957Zm23.6375-3.7438h-1.8915V2.7414h1.8915c.8676,0,1.5916.1526,2.1654.4054.5877.2529,1.0246.6831,1.3117,1.2982.2935.6012.4437,1.4413.4437,2.514s-.1435,1.9264-.4437,2.5685c-.2871.6425-.724,1.1001-1.3117,1.3801-.5805.2803-1.2978.4167-2.1654.4167m11.6929-9.558h10.4293v.975h-3.2441v18.3611h3.2441v.9747h-10.4293v-.9747h2.9916V2.7414h-2.9916v-.975Zm25.9441,11.6827c.3956.7654.5941,1.7081.5941,2.8146,0,1.264-.3006,2.357-.895,3.2862-.5944.9292-1.4003,1.6465-2.4246,2.1518-1.0175.5057-2.165.7586-3.4353.7586h-.0068c-.9833,0-1.8576-.1503-2.6226-.458-.7654-.3141-1.4413-.7376-2.0286-1.2707l-1.8648,1.6262h-.8807v-6.374h.9761c.2461.6696.5399,1.332.8954,1.988.3483.6489.7782,1.2433,1.2704,1.7693.4982.526,1.0724.9427,1.7348,1.2568.6553.3145,1.4139.4715,2.2604.4715s1.5709-.1296,2.1924-.3893c.6286-.2735,1.1137-.6493,1.4481-1.1343.3415-.4986.5121-1.093.5121-1.7829,0-.7312-.1913-1.3391-.5805-1.8242-.3893-.4986-.9018-.922-1.5435-1.2707-.6421-.3618-1.3459-.6966-2.124-1.0044-.765-.3141-1.5304-.6557-2.3017-1.0314-.7646-.369-1.4684-.8131-2.1105-1.3252-.6417-.526-1.1614-1.1686-1.5574-1.9335-.3893-.7789-.5801-1.7216-.5801-2.8421s.2728-2.0906.8266-2.8965c.5598-.8131,1.2903-1.4349,2.2056-1.8651.9085-.4302,1.9057-.6489,2.992-.6489.7853,0,1.5228.1229,2.2191.3757.7041.2525,1.332.6215,1.8922,1.1065l1.837-1.489h.8266v6.1143h-.9761c-.3622-1.0453-.8059-1.9471-1.3256-2.6918-.5256-.7582-1.1336-1.3459-1.837-1.7558-.6966-.4167-1.489-.6219-2.3841-.6219-1.0449,0-1.8712.2255-2.472.6763-.6012.4513-.9085,1.0934-.9085,1.9335,0,.656.1912,1.2163.5805,1.6806.3892.4509.9014.8541,1.5431,1.2024.6425.3415,1.3459.6763,2.1109,1.0044.7646.3141,1.53.6696,2.2878,1.0521.7646.3893,1.4687.8473,2.1105,1.3801.6418.5328,1.1543,1.1885,1.5439,1.9606m20.0041-11.6827v6.5179h-.9833c-.1022-.854-.2458-1.6258-.4441-2.3021-.1913-.6835-.4509-1.2707-.7849-1.7423-.3352-.4783-.7515-.8402-1.2572-1.093-.505-.2529-1.1201-.3757-1.837-.3757h-1.5435v18.3314h2.9777v.9747h-10.1557l-.0139-.9747h2.9777V2.7575h-1.5161c-.7244,0-1.3324.1229-1.8374.3757-.5058.2525-.9221.6147-1.2572,1.093-.3273.4783-.5869,1.0588-.7849,1.7419-.1984.6767-.3487,1.4417-.4441,2.3025h-1.0179V1.7663h17.9218ZM17.9042,0h12.3602v19.9534c0,10.4717-9.6391,16.3798-14.9855,18.0466C9.9326,36.3332.2935,30.4252.2935,19.9534V0h12.3602l2.6253,2.6253,2.6253-2.6253Z"/>
  <path class="cls-1" d="m18.304.9649h10.9955v18.9885c0,7.1833-5.872,14.261-14.0206,17.0302C7.1304,34.2144,1.2584,27.1367,1.2584,19.9534V.9649h10.9955l3.0251,3.0254,3.0251-3.0254Zm-3.0251,4.1586l-3.3572-3.3572H2.0595v18.1871c0,6.8087,5.4294,13.4457,13.2195,16.1822,7.7901-2.7365,13.2195-9.3735,13.2195-16.1822V1.7663h-9.8623l-3.3572,3.3572Zm-3.9061,11.1376c-.3224,0-.5831.2607-.5831.5828,0,.3224.2607.5831.5831.5831.322,0,.5828-.2607.5828-.5831,0-.322-.2608-.5828-.5828-.5828m2.2615,0c-.3224,0-.5831.2607-.5831.5828,0,.3224.2608.5831.5831.5831s.5831-.2607.5831-.5831c0-.322-.2607-.5828-.5831-.5828m-.1428,1.5251c.0015-.0004.0026-.0004.0042-.0008l-.0019-.0015-.0023.0023Zm5.1107-.9424c0,.3224.2608.5831.5831.5831.322,0,.5828-.2607.5828-.5831,0-.322-.2607-.5828-.5828-.5828-.3224,0-.5831.2607-.5831.5828m-3.3234-6.6486c.4546.015,1.2144.2837.9187,2.0786-.2953,1.7855-.2953,3.5601.6079,3.5601,1.193,0,.9724-2.8191.9724-2.8191l.3953-.4452s-.1612,3.2644.9893,3.2644c1.3027,0,.9608-2.6121.487-3.7915-.4295-1.0667.0346-2.0695.7755-2.0695,1.0318,0,1.4346,1.0592.8,1.6172.0759-.4069-.2487-.6947-.5711-.6947-.186,0-.3506.0853-.458.2217-.0875.106-.1431.2863-.1431.4836,0,.3393.3434.8037,1.0092.8037.5989,0,1.1141-.6143,1.2448-1.196.6692-.1417.8676-.4148.91-.6158-.4704.0665-.7131.006-.8728-.1781-2.3435-2.7038-4.3935.6031-4.7636,1.5627-.2262-.9814-1.022-2.2401-2.3014-2.2495-1.279.0094-2.0752,1.2681-2.3014,2.2495-.3701-.9596-2.4201-4.2665-4.7636-1.5627-.1597.1841-.4028.2446-.8728.1781.0424.201.2408.4742.91.6158.1307.5816.6459,1.196,1.2448,1.196.6658,0,1.0096-.4644,1.0096-.8037,0-.1973-.056-.3776-.1435-.4836-.1075-.1364-.272-.2217-.458-.2217-.3224,0-.647.2878-.5711.6947-.6346-.558-.2318-1.6172.8-1.6172.7409,0,1.205,1.0028.7755,2.0695-.4738,1.1794-.8157,3.7915.487,3.7915,1.1505,0,.9893-3.2644.9893-3.2644l.3953.4452s-.2205,2.8191.9724,2.8191c.9033,0,.9033-1.7746.6079-3.5601-.2953-1.7949.464-2.0635.9187-2.0786m1.0615,6.6486c0,.3224.2607.5831.5831.5831s.5831-.2607.5831-.5831c0-.322-.2608-.5828-.5831-.5828s-.5831.2607-.5831.5828m.7237.9401l-.0019.0015c.0015.0004.0026.0004.0042.0008l-.0023-.0023Zm-1.7851,7.2983c.3705,0,.5621-.1792.6914-.4806.4178-.877.1198-2.7917-.4674-4.3709.2153-.2589.6571-.5189.8229-.6125.0845,2.5189,2.1733,5.3516,5.5545,5.3764.121.2664.3994.4543.7041.4543.3043,0,.5644-.1766.6917-.4332.0022-.0019.0056-.0056.0056-.0056,1.22-.0571,2.292-.848,2.292-2.1747s-.8259-2.1533-.3772-3.4519c.0556.263.2897.4603.5696.4603.3224,0,.5831-.2607.5831-.5831s-.2608-.5831-.5831-.5831c-.0665,0-.7098-.0338-1.2313,1.0652-.3949-.4449-1.6652-2.9108-1.6652-3.9043,0-.7988.4144-1.2568,1.0006-1.2568.6252,0,1.1047.552.8169,1.2681-.0312-.2935-.2807-.5219-.5816-.5219-.3224,0-.5831.2611-.5831.5831,0,.0214.0011.0424.0034.0616.0304.2935.3314.5215.6369.5215.7387,0,1.1201-.5993,1.099-1.2211-.0225-.6482-.5317-1.3579-1.515-1.3579-1.0829,0-1.6247.9698-1.6247,1.9234,0,1.1738.8574,2.7342,1.4237,3.7641-.5275-.1229-1.6668-.431-2.0293-.9322.3897.0665.6808-.2517.6808-.5737,0-.3224-.2607-.5831-.5831-.5831-.2566,0-.4738.1646-.552.3949-.1556.4043-.0334,1.0851.8571,1.6299.4851.2946.5621.3224,1.4406.836-.5294.0395-1.3887.6361-1.3812,1.4688.0079.8093.7019,1.4289,1.4004,1.4289.1477,0,.3382-.0116.5313-.1687.1544-.1255.2003-.3291.2003-.4422,0-.3224-.2608-.5831-.5831-.5831s-.679.2968-.5565.7597c-.2127-.1266-.4813-.4847-.4813-.8687,0-.5937.6294-.8905,1.1528-.8905.6977,0,1.3177.7195,1.3177,1.7592,0,1.208-1.0419,1.6318-1.6363,1.6318-.0905-.3243-.3874-.564-.7421-.564-.3145,0-.5831.1879-.7041.4565-2.0248-.0917-1.4691-2.7308-1.5476-4.442-.0312-.665-.1571-2.1804-1.1069-2.1379-.5888.0244-.7158.8642-.6042,2.0692.1462,1.5811.762,3.054,1.6919,4.0951-2.9255-1.1663-2.0158-5.8866-3.2467-6.1587l-.0015-.0022c-.6015-.1281-1.27.7327-1.7832,1.9042-.5133-1.1715-1.1817-2.0324-1.7832-1.9042l-.0011.0022c-1.2313.272-.3216,4.9924-3.2471,6.1587.9299-1.0412,1.5458-2.514,1.6919-4.0951.1116-1.205-.0154-2.0448-.6042-2.0692-.9499-.0424-1.0757,1.4729-1.1069,2.1379-.0785,1.7111.4772,4.3503-1.5476,4.442-.121-.2687-.3897-.4565-.7041-.4565-.3547,0-.6515.2397-.7421.564-.5944,0-1.6363-.4238-1.6363-1.6318,0-1.0397.62-1.7592,1.3177-1.7592.5234,0,1.1528.2968,1.1528.8905,0,.384-.2687.7421-.4813.8687.1225-.4629-.2341-.7597-.5565-.7597s-.5831.2607-.5831.5831c0,.1131.0458.3167.2003.4422.1931.1571.3836.1687.5313.1687.6985,0,1.3925-.6196,1.4004-1.4289.0075-.8326-.8518-1.4293-1.3812-1.4688.8785-.5136.9555-.5414,1.4406-.836.8905-.5448,1.0126-1.2257.8571-1.6299-.0782-.2303-.2953-.3949-.552-.3949-.3224,0-.5831.2607-.5831.5831,0,.322.2912.6402.6808.5737-.3626.5012-1.5018.8093-2.0293.9322.5662-1.0299,1.4237-2.5903,1.4237-3.7641,0-.9536-.5418-1.9234-1.6247-1.9234-.9833,0-1.4924.7098-1.515,1.3579-.0211.6218.3603,1.2211,1.099,1.2211.3055,0,.6064-.2281.6369-.5215.0022-.0192.0034-.0402.0034-.0616,0-.322-.2607-.5831-.5828-.5831-.3013,0-.5508.2284-.582.5219-.2882-.7162.1916-1.2681.8169-1.2681.5861,0,1.0006.458,1.0006,1.2568,0,.9934-1.2704,3.4594-1.6652,3.9043-.5215-1.099-1.1648-1.0652-1.2313-1.0652-.3224,0-.5831.2608-.5831.5831s.2608.5831.5831.5831c.2799,0,.514-.1972.5696-.4603.449,1.2985-.3772,2.1252-.3772,3.4519s1.072,2.1176,2.292,2.1747c0,0,.0034.0038.0056.0056.1274.2566.3874.4332.6921.4332.3043,0,.5828-.1879.7038-.4543,3.3812-.0248,5.4699-2.8575,5.5545-5.3764.1653.0935.6076.3536.8229.6125-.5873,1.5792-.8848,3.494-.4674,4.3709.1293.3013.3209.4806.6914.4806"/>
</svg>